<svg width="26" height="26" viewBox="0 0 26 26" fill="none" xmlns="http://www.w3.org/2000/svg">
<path d="M24.3424 13C25.2578 13 26.0109 12.2548 25.8945 11.3468C25.5695 8.81197 24.5023 6.41568 22.8092 4.46893C20.7516 2.10307 17.9083 0.560573 14.8032 0.125666C11.6981 -0.309242 8.54039 0.392748 5.912 2.10228C3.28362 3.81181 1.36164 6.41369 0.500233 9.42847C-0.361173 12.4432 -0.103964 15.6678 1.22447 18.5079C2.5529 21.348 4.86303 23.6123 7.72918 24.8835C10.5953 26.1548 13.8244 26.3473 16.8213 25.4257C19.2873 24.6673 21.4594 23.1966 23.0745 21.2161C23.6531 20.5066 23.4074 19.4761 22.6301 18.9924V18.9924C21.8529 18.5087 20.8401 18.759 20.2311 19.4425C19.0611 20.7557 17.5478 21.7337 15.8468 22.2569C13.6141 22.9435 11.2086 22.8 9.07336 21.853C6.93814 20.9059 5.21715 19.2191 4.2275 17.1032C3.23785 14.9874 3.04623 12.5852 3.68796 10.3393C4.32969 8.09335 5.76152 6.15501 7.7196 4.88145C9.67769 3.60789 12.0301 3.08492 14.3433 3.40892C16.6566 3.73291 18.7748 4.88204 20.3076 6.64454C21.4755 7.98736 22.2436 9.61728 22.5432 11.3504C22.6991 12.2525 23.4269 13 24.3424 13V13Z" fill="#CFF7CF"/>
</svg>
