<svg width="39" height="39" viewBox="0 0 39 39" fill="none" xmlns="http://www.w3.org/2000/svg">
<path d="M4.5 0C2 0 0 2 0 4.5V27.4C0 29.9 2 31.9 4.5 31.9H11.1V36H8.29999C7.89999 36 7.59999 36.1 7.29999 36.4C6.99999 36.7 6.89999 37 6.89999 37.4C6.89999 37.8 6.99999 38.1 7.29999 38.4C7.59999 38.7 7.89999 38.8 8.29999 38.8H30.4C30.8 38.8 31.1 38.7 31.4 38.4C31.7 38.1 31.8 37.8 31.8 37.4C31.8 37 31.7 36.7 31.4 36.4C31.1 36.1 30.8 36 30.4 36H27.6V31.9H34.2C36.7 31.9 38.7 29.9 38.7 27.4V4.5C38.7 2 36.7 0 34.2 0H4.39999H4.5ZM4.5 2.8H34.3C35.3 2.8 36 3.5 36 4.5V18H2.79999V4.5C2.79999 3.5 3.5 2.8 4.5 2.8ZM2.79999 20.8H36V27.4C36 28.4 35.3 29.1 34.3 29.1H26.3C25.5 29.1 24.9 29.7 24.9 30.5V36H13.8V31.9H20.7C21.5 31.9 22.1 31.3 22.1 30.5C22.1 29.7 21.5 29.1 20.7 29.1H4.39999C3.39999 29.1 2.70001 28.4 2.70001 27.4V20.8H2.79999ZM16.6 23.6C15.8 23.6 15.2 24.2 15.2 25C15.2 25.8 15.8 26.4 16.6 26.4H22.1C22.5 26.4 22.8 26.3 23.1 26C23.4 25.7 23.5 25.4 23.5 25C23.5 24.6 23.4 24.3 23.1 24C22.8 23.7 22.5 23.6 22.1 23.6H16.6Z" fill="#3F3F40"/>
</svg>
