<svg width="39" height="39" viewBox="0 0 39 39" fill="none" xmlns="http://www.w3.org/2000/svg">
<path d="M17.1823 0C16.1823 0 15.1823 1.22041e-05 14.1823 0.200012C10.1823 0.800012 6.38229 2.80001 3.68229 6.20001C-1.71771 12.9 -1.1177 22.7 5.0823 28.7C11.0823 34.4 20.3823 34.8 26.7823 29.7L36.3823 38.4C36.9823 38.9 37.7823 38.9 38.3823 38.3C38.8823 37.7 38.8823 36.9 38.3823 36.3L27.8823 26.8C27.5823 26.5 27.1823 26.4 26.8823 26.4C26.4823 26.4 26.1823 26.6 25.9823 26.9C20.5823 31.7 12.4823 31.6 7.18229 26.6C1.98229 21.6 1.48229 13.5 5.98229 7.90002C10.5823 2.30002 18.5823 1.10001 24.5823 5.20001C30.5823 9.30001 32.3823 17.2 28.7823 23.5C28.3823 24.2 28.5823 25 29.2823 25.4C29.9823 25.8 30.7823 25.6 31.1823 24.9C35.4823 17.4 33.2823 7.8 26.1823 3C23.4823 1.2 20.4823 0.200006 17.3823 0.100006L17.1823 0ZM16.5823 5.5C10.4823 5.5 5.48229 10.5 5.48229 16.6C5.48229 17 5.5823 17.3 5.8823 17.6C6.1823 17.9 6.4823 18 6.8823 18C7.2823 18 7.5823 17.9 7.8823 17.6C8.1823 17.3 8.2823 17 8.2823 16.6C8.2823 12 11.9823 8.30002 16.5823 8.30002C17.3823 8.30002 17.9823 7.70002 17.9823 6.90002C17.9823 6.10002 17.3823 5.5 16.5823 5.5Z" fill="#3F3F40"/>
</svg>
