<svg width="530" height="483" viewBox="0 0 530 483" fill="none" xmlns="http://www.w3.org/2000/svg">
<path d="M27.6992 242.1H39.2992C39.2992 326.4 85.7992 402.8 160.699 441.6L155.299 451.9C131.199 439.4 109.599 422.9 91.1992 403.2C84.3992 445.6 47.4992 478.2 3.19922 478.2V466.6C45.2992 466.6 79.5992 432.9 80.6992 391.1C74.2992 383.3 68.3992 375.1 63.0992 366.5C39.8992 329.2 27.6992 286.2 27.6992 242.1Z" fill="url(#paint0_linear_784_3310)"/>
<path d="M436.5 81C443.3 38.6 480.2 6 524.5 6V17.6C482.4 17.6 448.1 51.3 447 93.1C453.4 100.9 459.3 109.1 464.6 117.7C487.8 155 500 198 500 242.1H488.4C488.4 157.8 441.9 81.4 367 42.6L372.4 32.3C396.5 44.8 418.1 61.3 436.5 81Z" fill="url(#paint1_linear_784_3310)"/>
<path d="M54.0992 133.7C61.5986 119.201 70.4977 105.602 80.6966 93.1028C79.5463 51.3476 45.2667 17.6996 3.19922 17.6996L3.29919 6.09961C47.5992 6.09961 84.4992 38.5996 91.2992 81.0996C105.499 65.8996 121.699 52.5996 139.499 41.4996C176.799 18.2996 219.799 6.09961 263.899 6.09961V17.6996C179.599 17.6996 103.199 64.1996 64.3992 139.1L54.0992 133.7Z" fill="url(#paint2_linear_784_3310)"/>
<path d="M473.601 350.7C466.101 365.1 457.201 378.7 447.001 391.2H446.901C448.001 433 482.301 466.7 524.401 466.7V478.3C480.101 478.3 443.201 445.8 436.401 403.3C422.201 418.5 406.001 431.8 388.201 442.9C350.901 466.1 307.901 478.3 263.801 478.3V466.7C348.101 466.7 424.501 420.2 463.301 345.3L473.601 350.7Z" fill="url(#paint3_linear_784_3310)"/>
<path d="M10.5 21C16.299 21 21 16.299 21 10.5C21 4.70101 16.299 0 10.5 0C4.70101 0 0 4.70101 0 10.5C0 16.299 4.70101 21 10.5 21Z" fill="#559E58"/>
<path d="M519.5 21C525.299 21 530 16.299 530 10.5C530 4.70101 525.299 0 519.5 0C513.701 0 509 4.70101 509 10.5C509 16.299 513.701 21 519.5 21Z" fill="#106434"/>
<path d="M519.5 483C525.299 483 530 478.299 530 472.5C530 466.701 525.299 462 519.5 462C513.701 462 509 466.701 509 472.5C509 478.299 513.701 483 519.5 483Z" fill="#0A572F"/>
<path d="M10.5 483C16.299 483 21 478.299 21 472.5C21 466.701 16.299 462 10.5 462C4.70101 462 0 466.701 0 472.5C0 478.299 4.70101 483 10.5 483Z" fill="#489451"/>
<defs>
<linearGradient id="paint0_linear_784_3310" x1="22.5102" y1="208.6" x2="422.791" y2="292.149" gradientUnits="userSpaceOnUse">
<stop stop-color="#569F58"/>
<stop offset="0.6" stop-color="#156E38"/>
<stop offset="1" stop-color="#034928"/>
</linearGradient>
<linearGradient id="paint1_linear_784_3310" x1="257.035" y1="-239.701" x2="657.095" y2="-156.248" gradientUnits="userSpaceOnUse">
<stop stop-color="#569F58"/>
<stop offset="0.6" stop-color="#156E38"/>
<stop offset="1" stop-color="#034928"/>
</linearGradient>
<linearGradient id="paint2_linear_784_3310" x1="35.1635" y1="-12.7717" x2="537.596" y2="295.378" gradientUnits="userSpaceOnUse">
<stop stop-color="#569F58"/>
<stop offset="0.6" stop-color="#156E38"/>
<stop offset="1" stop-color="#034928"/>
</linearGradient>
<linearGradient id="paint3_linear_784_3310" x1="81.8527" y1="206.891" x2="584.061" y2="514.599" gradientUnits="userSpaceOnUse">
<stop stop-color="#569F58"/>
<stop offset="0.6" stop-color="#156E38"/>
<stop offset="1" stop-color="#034928"/>
</linearGradient>
</defs>
</svg>
