<svg width="39" height="39" viewBox="0 0 39 39" fill="none" xmlns="http://www.w3.org/2000/svg">
<path d="M37.5256 0.200012C37.5256 0.200012 37.4256 0.200012 37.3256 0.200012C30.6256 1.00001 24.3256 3.99999 19.5256 8.89999L9.82559 18.6L4.22562 17.2L7.12558 14.3C8.62558 12.8 10.8256 12.2 12.8256 12.7C13.5256 12.9 14.3256 12.4 14.5256 11.7C14.7256 11 14.2256 10.2 13.5256 10C10.5256 9.3 7.32558 10.1 5.12558 12.3L0.425567 17C-0.374433 17.8 0.0256035 19.1 1.0256 19.3L9.42557 21.4L17.8256 29.8C18.3256 30.3 19.2256 30.3 19.8256 29.8L25.7256 23.9L26.3256 26.2C26.8256 28.3 26.3256 30.4 24.7256 31.9L21.8256 34.8L21.4256 33.4L21.0256 31.9C20.8256 31.2 20.1256 30.7 19.3256 30.9C18.6256 31.1 18.1256 31.8 18.3256 32.6L18.7256 34.1L19.7256 37.9C20.0256 38.9 21.3256 39.3 22.0256 38.5L26.7256 33.8C28.9256 31.6 29.8256 28.4 29.0256 25.4L28.0256 21.5L30.1256 19.4C34.9256 14.6 38.0256 8.30001 38.8256 1.60001C38.8256 1.20001 38.8256 0.8 38.5256 0.5C38.2256 0.2 37.9256 0 37.5256 0V0.200012ZM35.5256 3.60001C34.8256 7.10001 33.5256 10.4 31.6256 13.4L25.7256 7.5C28.7256 5.6 32.0256 4.30001 35.5256 3.60001ZM23.4256 9.10001L30.0256 15.7C29.5256 16.4 28.9256 17 28.3256 17.6L19.0256 26.9L16.3256 24.2L23.7256 16.8C24.2256 16.3 24.2256 15.4 23.7256 14.8C23.4256 14.5 23.1256 14.4 22.7256 14.4C22.3256 14.4 22.0256 14.6 21.8256 14.8L14.4256 22.2L12.3256 20.1L21.6256 10.8C22.2256 10.2 22.9256 9.60001 23.5256 9.10001H23.4256ZM6.62558 24C6.22558 24 5.92562 24.2 5.72562 24.4L2.92557 27.2C2.62557 27.5 2.5256 27.8 2.5256 28.2C2.5256 28.6 2.62557 28.9 2.92557 29.2C3.42557 29.7 4.32557 29.7 4.92557 29.2L7.72562 26.4C8.22562 25.9 8.22562 25 7.72562 24.5C7.42562 24.2 7.12562 24.1 6.72562 24.1L6.62558 24ZM10.9256 26.8C10.6256 26.8 10.2256 27 10.0256 27.2L3.0256 34.2C2.7256 34.5 2.62558 34.8 2.62558 35.2C2.62558 35.6 2.7256 35.9 3.0256 36.2C3.5256 36.7 4.4256 36.7 5.0256 36.2L12.0256 29.2C12.3256 28.9 12.4256 28.6 12.4256 28.2C12.4256 27.8 12.3256 27.5 12.0256 27.2C11.7256 27 11.4256 26.8 11.1256 26.8H10.9256ZM13.6256 31C13.2256 31 12.9256 31.2 12.7256 31.4L9.92557 34.2C9.62557 34.5 9.5256 34.8 9.5256 35.2C9.5256 35.6 9.62557 35.9 9.92557 36.2C10.2256 36.5 10.5256 36.6 10.9256 36.6C11.3256 36.6 11.6256 36.5 11.9256 36.2L14.7256 33.4C15.2256 32.9 15.2256 32 14.7256 31.4C14.4256 31.1 14.1256 31 13.7256 31H13.6256Z" fill="#3F3F40"/>
</svg>
