<svg width="39" height="39" viewBox="0 0 39 39" fill="none" xmlns="http://www.w3.org/2000/svg">
<path d="M25 0.0999756C24.2 0.0999756 23.6 0.7 23.6 1.5V9.79999H13.9C13.1 9.79999 12.5 10.4 12.5 11.2V36.1H5.60001V25H9.70001C10.5 25 11.1 24.4 11.1 23.6C11.1 22.8 10.5 22.2 9.70001 22.2H4.20001C3.40001 22.2 2.80002 22.8 2.80002 23.6V36H1.39999C0.999994 36 0.699994 36.1 0.399994 36.4C0.0999939 36.7 0 37 0 37.4C0 37.8 0.0999939 38.1 0.399994 38.4C0.699994 38.7 0.999994 38.8 1.39999 38.8H37.4C37.8 38.8 38.1 38.7 38.4 38.4C38.7 38.1 38.8 37.8 38.8 37.4C38.8 36.6 38.2 36 37.4 36H36V5.59998C36 4.79998 35.4 4.20001 34.6 4.20001C33.8 4.20001 33.2 4.79998 33.2 5.59998V36H26.3V2.79999H34.6C35.4 2.79999 36 2.20002 36 1.40002C36 0.600024 35.4 0 34.6 0H24.9L25 0.0999756ZM15.3 12.5H23.6V36H15.3V12.5Z" fill="#3F3F40"/>
</svg>
