<svg width="382" height="382" viewBox="0 0 382 382" fill="none" xmlns="http://www.w3.org/2000/svg">
<path d="M190.7 179.7L319.9 50.5C285.9 19.2 240.5 0 190.7 0C140.9 0 95.4 19.2 61.5 50.5L190.7 179.7Z" fill="url(#paint0_linear_784_3615)"/>
<path d="M190.7 201.7L61.5 330.9C95.5 362.2 140.9 381.4 190.7 381.4C240.5 381.4 286 362.2 319.9 330.9L190.7 201.7Z" fill="url(#paint1_linear_784_3615)"/>
<path d="M330.899 61.5L201.699 190.7L330.899 319.9C362.199 285.9 381.399 240.5 381.399 190.7C381.399 140.9 362.199 95.4 330.899 61.5Z" fill="url(#paint2_linear_784_3615)"/>
<path d="M179.7 190.7L50.5 61.5C19.2 95.5 0 140.9 0 190.7C0 240.5 19.2 286 50.5 319.9L179.7 190.7Z" fill="url(#paint3_linear_784_3615)"/>
<path d="M190.699 357.199C282.655 357.199 357.199 282.655 357.199 190.699C357.199 98.7438 282.655 24.1992 190.699 24.1992C98.7438 24.1992 24.1992 98.7438 24.1992 190.699C24.1992 282.655 98.7438 357.199 190.699 357.199Z" fill="url(#paint4_linear_784_3615)"/>
<path d="M190.698 349.999C278.677 349.999 349.998 278.678 349.998 190.699C349.998 102.72 278.677 31.3994 190.698 31.3994C102.719 31.3994 31.3984 102.72 31.3984 190.699C31.3984 278.678 102.719 349.999 190.698 349.999Z" fill="#F9F9F9"/>
<defs>
<linearGradient id="paint0_linear_784_3615" x1="-145.8" y1="-150.4" x2="773.3" y2="454.6" gradientUnits="userSpaceOnUse">
<stop stop-color="#569F58"/>
<stop offset="0.6" stop-color="#156E38"/>
<stop offset="1" stop-color="#034928"/>
</linearGradient>
<linearGradient id="paint1_linear_784_3615" x1="-255.7" y1="16.4999" x2="663.4" y2="621.5" gradientUnits="userSpaceOnUse">
<stop stop-color="#569F58"/>
<stop offset="0.6" stop-color="#156E38"/>
<stop offset="1" stop-color="#034928"/>
</linearGradient>
<linearGradient id="paint2_linear_784_3615" x1="-158.401" y1="-131.3" x2="760.699" y2="473.7" gradientUnits="userSpaceOnUse">
<stop stop-color="#569F58"/>
<stop offset="0.6" stop-color="#156E38"/>
<stop offset="1" stop-color="#034928"/>
</linearGradient>
<linearGradient id="paint3_linear_784_3615" x1="-243.1" y1="-2.5" x2="676" y2="602.4" gradientUnits="userSpaceOnUse">
<stop stop-color="#569F58"/>
<stop offset="0.6" stop-color="#156E38"/>
<stop offset="1" stop-color="#034928"/>
</linearGradient>
<linearGradient id="paint4_linear_784_3615" x1="310.899" y1="299.299" x2="62.3992" y2="74.7992" gradientUnits="userSpaceOnUse">
<stop stop-color="#F9F9F9"/>
<stop offset="0.8" stop-color="#FAFAFA"/>
<stop offset="1" stop-color="#FEFEFE"/>
</linearGradient>
</defs>
</svg>
