<svg width="32" height="32" viewBox="0 0 32 32" fill="none" xmlns="http://www.w3.org/2000/svg">
<path d="M14 9.99902V7.99902H2C0.898 7.99902 0 8.89702 0 9.99902V13.999H14.422C14.144 12.777 14 11.461 14 9.99902Z" fill="#0A5D31"/>
<path d="M31.918 17.999C30.554 20.101 28.474 21.889 25.494 23.601C25.036 23.863 24.52 23.999 24 23.999C23.48 23.999 22.964 23.863 22.512 23.605C19.532 21.889 17.452 20.099 16.086 17.999H0V27.999C0 29.103 0.898 29.999 2 29.999H30C31.104 29.999 32 29.103 32 27.999V17.999H31.918ZM9 23.999H5C4.448 23.999 4 23.551 4 22.999C4 22.447 4.448 21.999 5 21.999H9C9.552 21.999 10 22.447 10 22.999C10 23.551 9.552 23.999 9 23.999Z" fill="#0A5D31"/>
<path d="M31.394 5.08198L24.394 2.08198C24.14 1.97398 23.858 1.97398 23.604 2.08198L16.604 5.08198C16.238 5.23798 16 5.59998 16 5.99998V9.99998C16 15.502 18.034 18.718 23.502 21.868C23.656 21.956 23.828 22 24 22C24.172 22 24.344 21.956 24.498 21.868C29.966 18.726 32 15.51 32 9.99998V5.99998C32 5.59998 31.762 5.23798 31.394 5.08198ZM27.782 9.62598L23.782 14.626C23.59 14.862 23.302 15 23 15C22.986 15 22.97 15 22.958 15C22.64 14.986 22.346 14.822 22.168 14.556L20.168 11.556C19.862 11.096 19.986 10.476 20.446 10.17C20.902 9.86598 21.524 9.98598 21.832 10.448L23.074 12.31L26.218 8.37798C26.564 7.94798 27.194 7.87998 27.624 8.22198C28.056 8.56398 28.124 9.19398 27.782 9.62598Z" fill="#0A5D31"/>
</svg>
