<svg width="18" height="18" viewBox="0 0 18 18" fill="none" xmlns="http://www.w3.org/2000/svg">
<path d="M15.5116 4.23C15.4721 4.18247 15.4225 4.14423 15.3665 4.11798C15.3105 4.09173 15.2494 4.07813 15.1875 4.07812H3.72656L3.36305 2.07422C3.32186 1.84728 3.20229 1.64201 3.02521 1.49423C2.84813 1.34645 2.62478 1.26554 2.39414 1.26563H1.125C1.01311 1.26563 0.905806 1.31007 0.826689 1.38919C0.747572 1.46831 0.703125 1.57561 0.703125 1.6875C0.703125 1.79939 0.747572 1.90669 0.826689 1.98581C0.905806 2.06493 1.01311 2.10938 1.125 2.10938H2.39062C2.42392 2.10883 2.45633 2.12012 2.48209 2.14124C2.50784 2.16236 2.52526 2.19193 2.53125 2.22469L4.32492 12.0895C4.38182 12.4042 4.53515 12.6934 4.76367 12.9171C4.48772 13.1378 4.28164 13.4338 4.17039 13.7692C4.05914 14.1046 4.04748 14.4651 4.13682 14.8069C4.22616 15.1488 4.41268 15.4575 4.67379 15.6956C4.9349 15.9337 5.25942 16.091 5.60808 16.1485C5.95674 16.206 6.31459 16.1612 6.63833 16.0196C6.96207 15.8779 7.23782 15.6455 7.43221 15.3504C7.6266 15.0553 7.7313 14.7102 7.73364 14.3568C7.73598 14.0035 7.63586 13.657 7.44539 13.3594H11.1171C10.8985 13.7015 10.8 14.1067 10.8371 14.511C10.8743 14.9153 11.0449 15.2957 11.3222 15.5923C11.5995 15.8889 11.9677 16.0847 12.3686 16.1489C12.7695 16.2131 13.1803 16.142 13.5364 15.9468C13.8924 15.7516 14.1733 15.4435 14.3348 15.071C14.4963 14.6985 14.5293 14.2828 14.4284 13.8895C14.3275 13.4962 14.0986 13.1477 13.7777 12.899C13.4568 12.6502 13.0623 12.5153 12.6562 12.5156H5.84789C5.68322 12.5156 5.52377 12.4579 5.39733 12.3524C5.27089 12.2469 5.18549 12.1004 5.15602 11.9384L4.90289 10.5469H13.2258C13.5881 10.547 13.9389 10.4199 14.2171 10.1878C14.4952 9.95579 14.6832 9.63345 14.748 9.27703L15.6023 4.57523C15.6134 4.51456 15.611 4.4522 15.5953 4.39255C15.5796 4.3329 15.5511 4.27742 15.5116 4.23ZM6.89062 14.3438C6.89062 14.5384 6.83289 14.7288 6.72473 14.8906C6.61656 15.0525 6.46282 15.1787 6.28295 15.2532C6.10308 15.3277 5.90516 15.3472 5.71421 15.3092C5.52326 15.2712 5.34786 15.1775 5.21019 15.0398C5.07252 14.9021 4.97877 14.7267 4.94079 14.5358C4.90281 14.3448 4.9223 14.1469 4.99681 13.967C5.07131 13.7872 5.19748 13.6334 5.35936 13.5253C5.52124 13.4171 5.71156 13.3594 5.90625 13.3594C6.16732 13.3594 6.4177 13.4631 6.60231 13.6477C6.78691 13.8323 6.89062 14.0827 6.89062 14.3438ZM13.6406 14.3438C13.6406 14.5384 13.5829 14.7288 13.4747 14.8906C13.3666 15.0525 13.2128 15.1787 13.033 15.2532C12.8531 15.3277 12.6552 15.3472 12.4642 15.3092C12.2733 15.2712 12.0979 15.1775 11.9602 15.0398C11.8225 14.9021 11.7288 14.7267 11.6908 14.5358C11.6528 14.3448 11.6723 14.1469 11.7468 13.967C11.8213 13.7872 11.9475 13.6334 12.1094 13.5253C12.2712 13.4171 12.4616 13.3594 12.6562 13.3594C12.9173 13.3594 13.1677 13.4631 13.3523 13.6477C13.5369 13.8323 13.6406 14.0827 13.6406 14.3438ZM13.9177 9.12586C13.8882 9.28787 13.8028 9.43439 13.6763 9.53989C13.5499 9.64538 13.3904 9.70315 13.2258 9.70312H4.74961L3.88055 4.92188H14.682L13.9177 9.12586Z" fill="#4D5562"/>
</svg>
