<svg width="32" height="32" viewBox="0 0 32 32" fill="none" xmlns="http://www.w3.org/2000/svg">
<g clip-path="url(#clip0_405_3559)">
<path d="M4.6875 16.0625H9.0625V17.9375H4.6875V16.0625Z" fill="#0A5D31"/>
<path d="M24.0625 11.375H2.8125C1.26169 11.375 0 12.6367 0 14.1875V29.1875C0 30.7383 1.26169 32 2.8125 32H24.0625C25.6133 32 26.875 30.7383 26.875 29.1875V14.1875C26.875 12.6367 25.6133 11.375 24.0625 11.375ZM2.8125 15.125C2.8125 14.6072 3.23225 14.1875 3.75 14.1875H10C10.5178 14.1875 10.9375 14.6072 10.9375 15.125V18.875C10.9375 19.3928 10.5178 19.8125 10 19.8125H3.75C3.23225 19.8125 2.8125 19.3928 2.8125 18.875V15.125ZM3.75 23.5625H5.625C6.14275 23.5625 6.5625 23.9822 6.5625 24.5C6.5625 25.0178 6.14275 25.4375 5.625 25.4375H3.75C3.23225 25.4375 2.8125 25.0178 2.8125 24.5C2.8125 23.9822 3.23225 23.5625 3.75 23.5625ZM10 29.1875H3.75C3.23225 29.1875 2.8125 28.7678 2.8125 28.25C2.8125 27.7322 3.23225 27.3125 3.75 27.3125H10C10.5178 27.3125 10.9375 27.7322 10.9375 28.25C10.9375 28.7678 10.5178 29.1875 10 29.1875ZM11.25 25.4375H9.375C8.85725 25.4375 8.4375 25.0178 8.4375 24.5C8.4375 23.9822 8.85725 23.5625 9.375 23.5625H11.25C11.7678 23.5625 12.1875 23.9822 12.1875 24.5C12.1875 25.0178 11.7678 25.4375 11.25 25.4375ZM16.875 25.4375H15C14.4822 25.4375 14.0625 25.0178 14.0625 24.5C14.0625 23.9822 14.4822 23.5625 15 23.5625H16.875C17.3928 23.5625 17.8125 23.9822 17.8125 24.5C17.8125 25.0178 17.3928 25.4375 16.875 25.4375ZM23.125 19.8125H20C19.4822 19.8125 19.0625 19.3928 19.0625 18.875C19.0625 18.3572 19.4822 17.9375 20 17.9375H23.125C23.6428 17.9375 24.0625 18.3572 24.0625 18.875C24.0625 19.3928 23.6428 19.8125 23.125 19.8125ZM23.125 16.0625H20C19.4822 16.0625 19.0625 15.6428 19.0625 15.125C19.0625 14.6072 19.4822 14.1875 20 14.1875H23.125C23.6428 14.1875 24.0625 14.6072 24.0625 15.125C24.0625 15.6428 23.6428 16.0625 23.125 16.0625Z" fill="#0A5D31"/>
<path d="M31.9048 16.5734L30.0445 9.63086L26.9141 10.4697C28.0298 11.3273 28.7509 12.6742 28.7509 14.1871V20.3302L29.916 20.018C31.414 19.6166 32.3061 18.0714 31.9048 16.5734Z" fill="#0A5D31"/>
<path d="M23.2874 9.49973L29.5567 7.81991L29.0713 6.00879L16.043 9.49973H23.2874Z" fill="#0A5D31"/>
<path d="M2.18406 9.49999H8.799L28.5864 4.19792L28.0202 2.08486C27.6189 0.586924 26.0737 -0.305264 24.5757 0.0961735L4.04975 5.59605C2.55175 5.99742 1.65962 7.54267 2.061 9.04067L2.18406 9.49999Z" fill="#0A5D31"/>
</g>
<defs>
<clipPath id="clip0_405_3559">
<rect width="32" height="32" fill="white"/>
</clipPath>
</defs>
</svg>
