<svg width="32" height="32" viewBox="0 0 32 32" fill="none" xmlns="http://www.w3.org/2000/svg">
<path d="M13.78 25.466L12.3164 30.1003C12.2727 30.239 12.1444 30.3333 11.9987 30.3333H5.9987C5.8927 30.3333 5.7927 30.2827 5.7297 30.197C5.6667 30.1113 5.6487 30.001 5.68103 29.8997L8.0457 22.4117C8.12603 22.599 8.19936 22.809 8.2717 23.0167C8.5167 23.7213 8.79436 24.5197 9.49703 24.9263C10.19 25.3273 11.0144 25.171 11.7407 25.034C12.1997 24.947 12.674 24.8577 12.9784 24.939C13.2107 25.0007 13.4944 25.223 13.78 25.466ZM23.9517 22.4113C23.8714 22.5987 23.7977 22.809 23.7254 23.017C23.4804 23.7213 23.2027 24.52 22.5004 24.9263C21.8074 25.3273 20.983 25.1717 20.2567 25.034C19.797 24.947 19.3227 24.8583 19.019 24.9387C18.7867 25.001 18.503 25.223 18.2174 25.466L19.6807 30.1003C19.7247 30.239 19.853 30.3333 19.9987 30.3333H25.9987C26.1047 30.3333 26.2047 30.2827 26.2677 30.197C26.3307 30.1113 26.3487 30.001 26.3164 29.8997L23.9517 22.4113ZM22.9987 13.6667C22.9987 17.5263 19.8584 20.6667 15.9987 20.6667C12.139 20.6667 8.9987 17.5263 8.9987 13.6667C8.9987 9.807 12.139 6.66667 15.9987 6.66667C19.8584 6.66667 22.9987 9.807 22.9987 13.6667ZM20.3147 12.2833C20.275 12.165 20.1724 12.0787 20.049 12.0597L17.4607 11.664L16.3004 9.19167C16.2454 9.075 16.128 9 15.9987 9C15.8694 9 15.752 9.075 15.697 9.19167L14.5367 11.664L11.9484 12.0597C11.825 12.0787 11.7224 12.1647 11.6827 12.2833C11.643 12.402 11.673 12.5323 11.76 12.622L13.633 14.5417L13.007 17.2587C12.978 17.385 13.025 17.5167 13.127 17.5967C13.229 17.6763 13.3687 17.6897 13.4837 17.6303L15.9987 16.3413L18.5134 17.6297C18.561 17.6547 18.6137 17.6667 18.6654 17.6667C18.7384 17.6667 18.8107 17.643 18.87 17.5963C18.9724 17.5167 19.019 17.3847 18.99 17.2583L18.364 14.5413L20.237 12.6217C20.3247 12.5323 20.3544 12.4017 20.3147 12.2833ZM25.9824 16.3437C25.8227 16.9403 25.941 17.5667 26.0557 18.1727C26.15 18.671 26.257 19.2363 26.104 19.5007C25.9457 19.774 25.396 19.9657 24.9107 20.134C24.334 20.3347 23.737 20.542 23.3064 20.9727C22.8744 21.405 22.667 22.0017 22.4664 22.5787C22.2974 23.064 22.1064 23.6133 21.8334 23.7717C21.8 23.7907 21.7004 23.8483 21.4414 23.8483C21.1664 23.8483 20.8304 23.785 20.5054 23.7233C20.1327 23.6527 19.711 23.573 19.3057 23.573C19.0764 23.573 18.8707 23.598 18.678 23.649C18.099 23.8043 17.6277 24.2117 17.1717 24.606C16.758 24.964 16.331 25.3333 15.9987 25.3333C15.6657 25.3333 15.2387 24.964 14.8254 24.606C14.3694 24.2117 13.8977 23.804 13.3214 23.6503C13.128 23.5987 12.921 23.5737 12.6897 23.5737C12.2857 23.5737 11.864 23.6533 11.492 23.724C11.1654 23.7857 10.8294 23.849 10.5547 23.849C10.2967 23.849 10.1967 23.791 10.164 23.7723C9.89036 23.6137 9.6987 23.064 9.53036 22.5787C9.3297 22.002 9.12236 21.405 8.6917 20.9743C8.25936 20.5423 7.6627 20.335 7.0857 20.1343C6.60036 19.9653 6.05103 19.7743 5.8927 19.5013C5.74003 19.237 5.8467 18.6723 5.94103 18.1737C6.05603 17.5643 6.1737 16.9397 6.0147 16.344C5.86036 15.7677 5.4527 15.296 5.0587 14.8403C4.70136 14.426 4.33203 13.999 4.33203 13.6667C4.33203 13.3337 4.70136 12.9067 5.05936 12.4933C5.4537 12.0373 5.86136 11.5657 6.01503 10.9893C6.1747 10.3927 6.05636 9.76633 5.9417 9.16033C5.84736 8.662 5.74036 8.09667 5.89336 7.83233C6.0517 7.559 6.60136 7.36733 7.0867 7.199C7.66336 6.99833 8.26036 6.791 8.69103 6.36033C9.12303 5.928 9.33036 5.33133 9.53103 4.75433C9.70003 4.269 9.89103 3.71967 10.164 3.56133C10.1974 3.54233 10.2974 3.48433 10.5564 3.48433C10.832 3.48433 11.1674 3.548 11.4917 3.60967C11.8637 3.68 12.2844 3.75967 12.6917 3.75967C12.9204 3.75967 13.1244 3.73533 13.3164 3.68467C13.8984 3.52867 14.3697 3.12133 14.8254 2.727C15.2394 2.36933 15.6664 2 15.9987 2C16.3317 2 16.7587 2.36933 17.172 2.72733C17.628 3.12167 18.0997 3.52933 18.676 3.683C18.869 3.73433 19.0754 3.75967 19.3067 3.75967C19.709 3.75967 20.1317 3.68 20.5044 3.60967C20.8307 3.54767 21.1674 3.48433 21.442 3.48433C21.7 3.48433 21.8004 3.54233 21.833 3.561C22.1067 3.71967 22.2984 4.26933 22.4667 4.75467C22.6674 5.33133 22.8747 5.92833 23.3054 6.359C23.7377 6.791 24.3344 6.99833 24.9114 7.199C25.3967 7.368 25.946 7.559 26.1044 7.832C26.257 8.09633 26.1504 8.661 26.056 9.15967C25.941 9.769 25.8234 10.3937 25.9824 10.9893C26.1367 11.5657 26.5444 12.0373 26.9384 12.493C27.296 12.9073 27.6654 13.3343 27.6654 13.6667C27.6654 13.9997 27.296 14.4267 26.938 14.84C26.544 15.296 26.136 15.7677 25.9824 16.3437ZM24.332 13.6667C24.332 9.07167 20.5937 5.33333 15.9987 5.33333C11.4037 5.33333 7.66536 9.07167 7.66536 13.6667C7.66536 18.2617 11.4037 22 15.9987 22C20.5937 22 24.332 18.2617 24.332 13.6667Z" fill="#0A5D31"/>
</svg>
