<svg width="32" height="32" viewBox="0 0 32 32" fill="none" xmlns="http://www.w3.org/2000/svg">
<g clip-path="url(#clip0_405_3557)">
<path fill-rule="evenodd" clip-rule="evenodd" d="M21.7702 28.7344V16.9132L32 11.007V22.3756C32 22.6628 31.8566 22.911 31.608 23.0546L21.7702 28.7344ZM9.4645 22.8591H1.21063C0.542063 22.8591 0 22.3171 0 21.6485C0 20.9799 0.542063 20.4379 1.21063 20.4379H9.42144C10.8412 20.4379 10.8412 18.1705 9.42144 18.1705H4.48731C3.81875 18.1705 3.27662 17.6284 3.27662 16.9599C3.27662 16.2913 3.81875 15.7493 4.48731 15.7493H8.34644C9.76619 15.7493 9.76619 13.4819 8.34644 13.4819H1.21069C0.542125 13.4819 6.25e-05 12.9398 6.25e-05 12.2712C6.25e-05 11.6027 0.542125 11.0606 1.21069 11.0606H9.50369L19.6409 16.9134V28.7344L9.4645 22.8591ZM10.4681 9.16488L20.7055 15.0754L30.9429 9.16481L20.7251 3.26562H14.0211C13.3526 3.26562 12.8105 3.80769 12.8105 4.47625C12.8105 5.14481 13.3526 5.68687 14.0211 5.68687H15.4379C15.568 5.68687 15.6771 5.77056 15.7107 5.89625C15.7444 6.02194 15.6918 6.14894 15.5791 6.21406L10.4681 9.16488ZM9.88531 3.26562C10.5539 3.26562 11.0959 3.80769 11.0959 4.47625C11.0959 5.14481 10.5539 5.68687 9.88531 5.68687H2.52675C1.85819 5.68687 1.31606 5.14481 1.31606 4.47625C1.31606 3.80769 1.85813 3.26562 2.52675 3.26562H9.88531Z" fill="#0A5D31"/>
</g>
<defs>
<clipPath id="clip0_405_3557">
<rect width="32" height="32" fill="white"/>
</clipPath>
</defs>
</svg>
