<svg width="14" height="15" viewBox="0 0 14 15" fill="none" xmlns="http://www.w3.org/2000/svg">
<path d="M11.9673 6.17497L7.59227 2.04716C7.59013 2.04529 7.58812 2.04328 7.58625 2.04114C7.42517 1.89465 7.21527 1.81348 6.99754 1.81348C6.77981 1.81348 6.56991 1.89465 6.40883 2.04114L6.40281 2.04716L2.03273 6.17497C1.94359 6.25694 1.87244 6.35652 1.82377 6.46741C1.7751 6.5783 1.74998 6.69809 1.75 6.81919V11.875C1.75 12.1071 1.84219 12.3297 2.00628 12.4938C2.17038 12.6579 2.39294 12.75 2.625 12.75H5.25C5.48206 12.75 5.70462 12.6579 5.86872 12.4938C6.03281 12.3297 6.125 12.1071 6.125 11.875V9.25005H7.875V11.875C7.875 12.1071 7.96719 12.3297 8.13128 12.4938C8.29538 12.6579 8.51794 12.75 8.75 12.75H11.375C11.6071 12.75 11.8296 12.6579 11.9937 12.4938C12.1578 12.3297 12.25 12.1071 12.25 11.875V6.81919C12.25 6.69809 12.2249 6.5783 12.1762 6.46741C12.1276 6.35652 12.0564 6.25694 11.9673 6.17497ZM11.375 11.875H8.75V9.25005C8.75 9.01798 8.65781 8.79542 8.49372 8.63133C8.32962 8.46723 8.10706 8.37505 7.875 8.37505H6.125C5.89294 8.37505 5.67038 8.46723 5.50628 8.63133C5.34219 8.79542 5.25 9.01798 5.25 9.25005V11.875H2.625V6.81919L2.63102 6.81372L7 2.68755L11.3695 6.81262L11.3755 6.81809L11.375 11.875Z" fill="white" fill-opacity="0.65"/>
</svg>
