<svg width="14" height="15" viewBox="0 0 14 15" fill="none" xmlns="http://www.w3.org/2000/svg">
<path d="M12.25 3.125H1.75C1.63397 3.125 1.52269 3.17109 1.44064 3.25314C1.35859 3.33519 1.3125 3.44647 1.3125 3.5625V11C1.3125 11.2321 1.40469 11.4546 1.56878 11.6187C1.73288 11.7828 1.95544 11.875 2.1875 11.875H11.8125C12.0446 11.875 12.2671 11.7828 12.4312 11.6187C12.5953 11.4546 12.6875 11.2321 12.6875 11V3.5625C12.6875 3.44647 12.6414 3.33519 12.5594 3.25314C12.4773 3.17109 12.366 3.125 12.25 3.125ZM11.1251 4L7 7.78164L2.87492 4H11.1251ZM11.8125 11H2.1875V4.55727L6.70414 8.69766C6.78485 8.77175 6.89043 8.81286 7 8.81286C7.10957 8.81286 7.21515 8.77175 7.29586 8.69766L11.8125 4.55727V11Z" fill="white" fill-opacity="0.65"/>
</svg>
