<svg width="20" height="20" viewBox="0 0 20 20" fill="none" xmlns="http://www.w3.org/2000/svg">
<path d="M18.507 9.59384C17.907 8.31203 16.3616 7.80596 15.0767 7.40596C15.0191 7.38778 14.9646 7.37263 14.907 7.34839C14.8616 8.59687 14.6191 9.83021 14.0919 10.9938C13.6161 12.0454 12.907 13.009 12.0312 13.8302C13.7494 14.609 16.6464 14.9908 17.9858 13.2938C18.7888 12.2696 19.0616 10.7757 18.507 9.59384Z" fill="white"/>
<path d="M11.5819 14.2939C11.0546 15.3 9.84252 17.7727 9.85161 18.203C9.8698 18.8788 10.3698 19.4182 11.0546 19.3909C12.0243 19.3546 12.394 18.3879 12.8183 17.6788C13.2183 17.0121 13.8486 15.8515 14.2516 15.0515C13.4092 14.9606 12.5395 14.7273 11.7789 14.3818L11.5819 14.2939Z" fill="white"/>
<path d="M8.49278 8.39377C8.29884 8.8665 8.07763 9.32711 7.84126 9.7665C7.1049 11.1453 6.25339 12.2544 5.38672 13.0059C7.04429 12.7665 8.90187 12.7938 11.3867 13.6029L11.617 13.3877C12.4413 12.615 13.1079 11.7029 13.5413 10.7453C14.0019 9.73014 14.2564 8.58165 14.3049 7.32711L14.314 7.12105C12.614 6.39074 10.7443 4.86044 9.59884 3.32104C9.62611 4.33317 9.45338 5.52104 9.06248 6.81498C8.9049 7.3362 8.71399 7.86953 8.49278 8.39377Z" fill="white"/>
<path d="M8.47482 6.64225C8.47785 6.63013 8.48088 6.62104 8.48391 6.60891C7.84451 6.44225 7.16269 6.30588 6.44148 6.20285C6.18088 6.16346 5.89603 6.13013 5.62633 6.13013C5.44148 6.13013 5.26269 6.14528 5.09906 6.1877C4.63239 6.29982 4.41724 6.5877 4.41421 6.82407C4.40815 7.09376 4.58997 7.41195 4.9536 7.76649C5.53542 8.35437 6.33239 8.86043 7.38391 9.31498C7.57785 8.94528 7.76269 8.56043 7.92633 8.1574C8.14451 7.64831 8.32633 7.14225 8.47482 6.64225Z" fill="white"/>
<path d="M7.09703 9.85142C6.00007 9.37263 5.15461 8.82718 4.53037 8.19688C4.03643 7.71809 3.80006 7.26354 3.81219 6.81203C3.82128 6.24536 4.28188 5.75748 4.95764 5.59688C5.45764 5.47264 6.0334 5.52718 6.53037 5.60294C7.27279 5.709 7.98188 5.84839 8.64552 6.02112C9.31219 3.35142 8.98491 1.13324 7.70613 0.687787C6.10916 0.127181 3.64552 2.55142 2.20309 6.06961C0.781883 9.54839 0.887943 12.8242 2.44249 13.4151C3.73946 13.906 5.64552 12.3878 7.09703 9.85142Z" fill="white"/>
</svg>
