<svg width="20" height="20" viewBox="0 0 20 20" fill="none" xmlns="http://www.w3.org/2000/svg">
<g clip-path="url(#clip0_199_3931)">
<path d="M19.5542 4.94693C19.5542 4.92579 19.5542 4.92579 19.5542 4.90465C19.5331 4.86237 19.5331 4.82009 19.512 4.77781V4.75666C19.4908 4.71438 19.4485 4.6721 19.4274 4.65096L19.4063 4.62982C19.3851 4.60868 19.3428 4.58754 19.3217 4.5664L19.3005 4.54526H19.2794L19.2583 4.52412L10.2735 0.0634222C10.1043 -0.0211407 9.89292 -0.0211407 9.70266 0.0634222L6.67953 1.56441L15.7066 6.19424L15.7278 6.21538C15.7489 6.21538 15.7489 6.23652 15.77 6.23652C15.7912 6.25766 15.7912 6.2788 15.8123 6.29994C15.8123 6.32108 15.8123 6.32108 15.8123 6.34222V6.36336V11.268C15.8123 11.3526 15.77 11.416 15.7066 11.4583L13.8885 12.4096C13.7828 12.473 13.656 12.4308 13.5926 12.325C13.5714 12.3039 13.5714 12.2616 13.5714 12.2193V7.4204L4.43861 2.70601L4.41747 2.68487L0.760127 4.50298L0.738986 4.52412H0.717845L0.696705 4.54526C0.675564 4.5664 0.633282 4.58754 0.612142 4.60868L0.591001 4.62982C0.548719 4.6721 0.527579 4.71438 0.485297 4.75666V4.77781C0.464156 4.82009 0.443016 4.86237 0.443016 4.90465C0.443016 4.92579 0.443016 4.92579 0.443016 4.94693C0.443016 4.98921 0.421875 5.01035 0.421875 5.05264V5.07378V14.9254C0.421875 15.1579 0.548719 15.3905 0.781267 15.4962L9.68152 19.9357C9.80836 19.9991 9.95635 20.0203 10.1043 19.978L10.1466 19.9569C10.1889 19.9569 10.21 19.9357 10.2523 19.9146L19.216 15.475C19.4274 15.3693 19.5754 15.1579 19.5754 14.9042V5.07378V5.05264C19.5542 5.01035 19.5542 4.98921 19.5542 4.94693Z" fill="white"/>
</g>
<defs>
<clipPath id="clip0_199_3931">
<rect width="20" height="20" fill="white"/>
</clipPath>
</defs>
</svg>
