<svg width="18" height="18" viewBox="0 0 18 18" fill="none" xmlns="http://www.w3.org/2000/svg">
<path d="M10.7065 2.66695C10.7256 2.59556 10.7586 2.52864 10.8035 2.47C10.8485 2.41136 10.9046 2.36215 10.9686 2.32519C11.0326 2.28824 11.1032 2.26425 11.1765 2.2546C11.2497 2.24496 11.3242 2.24984 11.3956 2.26898C12.4383 2.54105 13.3897 3.08618 14.1518 3.84822C14.9138 4.61026 15.4589 5.56167 15.731 6.60445C15.7502 6.67582 15.755 6.75027 15.7454 6.82354C15.7358 6.8968 15.7118 6.96745 15.6748 7.03144C15.6378 7.09543 15.5886 7.15151 15.53 7.19648C15.4714 7.24144 15.4044 7.27442 15.3331 7.29351C15.2855 7.30599 15.2366 7.31237 15.1875 7.3125C15.0636 7.31249 14.9431 7.27154 14.8448 7.19602C14.7465 7.12049 14.6759 7.01461 14.644 6.89484C14.4221 6.04358 13.9772 5.2669 13.3551 4.64485C12.7331 4.02281 11.9564 3.57791 11.1052 3.35601C11.0337 3.33699 10.9667 3.30407 10.908 3.25914C10.8493 3.2142 10.8 3.15813 10.763 3.09413C10.7259 3.03013 10.7019 2.95946 10.6922 2.88616C10.6825 2.81286 10.6874 2.73837 10.7065 2.66695ZM10.5427 5.60601C11.5123 5.86476 12.1352 6.48773 12.394 7.45734C12.4259 7.57711 12.4965 7.68299 12.5948 7.75852C12.6931 7.83404 12.8136 7.87499 12.9375 7.875C12.9866 7.87487 13.0355 7.86849 13.0831 7.85601C13.1544 7.83692 13.2214 7.80394 13.28 7.75898C13.3386 7.71401 13.3878 7.65793 13.4248 7.59394C13.4618 7.52995 13.4858 7.4593 13.4954 7.38604C13.505 7.31277 13.5002 7.23832 13.481 7.16695C13.121 5.81976 12.1802 4.87898 10.8331 4.51898C10.7617 4.49991 10.6872 4.49509 10.614 4.50479C10.5408 4.51449 10.4702 4.53852 10.4062 4.5755C10.3422 4.61249 10.2862 4.66171 10.2413 4.72036C10.1963 4.779 10.1634 4.84592 10.1443 4.9173C10.1253 4.98867 10.1205 5.06311 10.1302 5.13635C10.1398 5.20959 10.1639 5.2802 10.2009 5.34415C10.2379 5.4081 10.2871 5.46414 10.3457 5.50907C10.4044 5.554 10.4713 5.58694 10.5427 5.60601ZM16.3041 12.3103C16.1787 13.2631 15.7108 14.1376 14.9878 14.7706C14.2647 15.4036 13.336 15.7517 12.375 15.75C6.79219 15.75 2.25001 11.2078 2.25001 5.62499C2.24828 4.66403 2.59643 3.73529 3.22941 3.01225C3.8624 2.28921 4.73694 1.8213 5.68969 1.69593C5.93062 1.66651 6.1746 1.7158 6.38522 1.83644C6.59583 1.95708 6.76178 2.1426 6.85829 2.36531L8.34329 5.68054V5.68898C8.41718 5.85945 8.44769 6.04558 8.43211 6.23072C8.41653 6.41586 8.35533 6.59427 8.25399 6.75C8.24133 6.76898 8.22798 6.78656 8.21391 6.80414L6.75001 8.53945C7.27665 9.6096 8.39602 10.7191 9.48024 11.2472L11.1916 9.79101C11.2085 9.77688 11.2261 9.76374 11.2444 9.75164C11.4 9.64786 11.579 9.58451 11.7652 9.56732C11.9515 9.55013 12.1391 9.57965 12.311 9.6532L12.3202 9.65742L15.6326 11.1417C15.8557 11.2379 16.0417 11.4037 16.1627 11.6143C16.2837 11.825 16.3333 12.0691 16.3041 12.3103ZM15.1875 12.1697C15.1875 12.1697 15.1826 12.1697 15.1798 12.1697L11.8751 10.6896L10.163 12.1458C10.1464 12.1598 10.129 12.173 10.1109 12.1852C9.94905 12.2932 9.76191 12.3573 9.56781 12.3714C9.37371 12.3854 9.17928 12.3489 9.00352 12.2653C7.68657 11.629 6.37383 10.3261 5.7368 9.0232C5.65245 8.84872 5.6146 8.65541 5.62691 8.46201C5.63923 8.2686 5.70131 8.08166 5.80712 7.91929C5.81904 7.90023 5.83244 7.88213 5.84719 7.86515L7.31251 6.12773L5.83594 2.82304C5.83567 2.82024 5.83567 2.81741 5.83594 2.8146C5.15409 2.90355 4.52805 3.238 4.07505 3.75533C3.62205 4.27265 3.37316 4.93737 3.37501 5.62499C3.37761 8.01114 4.32666 10.2988 6.01392 11.9861C7.70119 13.6733 9.98886 14.6224 12.375 14.625C13.0622 14.6274 13.7267 14.3793 14.2444 13.9273C14.762 13.4753 15.0973 12.8502 15.1875 12.169V12.1697Z" fill="#4D5562"/>
</svg>
