<svg width="20" height="20" viewBox="0 0 20 20" fill="none" xmlns="http://www.w3.org/2000/svg">
<path d="M10.0075 13.3824C8.89573 13.3824 7.98984 12.4765 7.98396 11.3647H0.589844V17.5824C0.589844 18.2059 1.10161 18.7177 1.72514 18.7177H18.2781C18.9016 18.7177 19.4134 18.2059 19.4134 17.5824V11.3647H12.031C12.0251 12.4765 11.1193 13.3824 10.0075 13.3824Z" fill="white"/>
<path d="M18.2781 6.01196H1.72514C1.10161 6.01196 0.589844 6.52373 0.589844 7.14726V10.0178H7.98396C7.98984 8.90608 8.89573 8.0002 10.0075 8.0002C10.5487 8.0002 11.0722 8.21785 11.4428 8.6002C11.8075 8.95314 12.0251 9.47667 12.031 10.0178H19.4134V7.14726C19.4134 6.52373 18.9016 6.01196 18.2781 6.01196Z" fill="white"/>
<path d="M10.6909 11.3589V10.0295C10.6909 9.84714 10.6203 9.67656 10.4967 9.55891C10.3614 9.42362 10.1909 9.35303 10.0085 9.35303C9.63203 9.35303 9.33203 9.65891 9.33203 10.0295V11.3589C9.33203 11.7354 9.63791 12.0413 10.0085 12.0413C10.3791 12.0413 10.6909 11.7354 10.6909 11.3589Z" fill="white"/>
<path d="M5.96618 3.30012C5.96618 2.92953 6.26618 2.62953 6.63676 2.62953H12.6897C13.0603 2.62953 13.3603 2.92953 13.3603 3.30012V4.67071H14.7074V3.30012C14.7074 2.18835 13.8015 1.28247 12.6897 1.28247H6.64265C5.53088 1.28247 4.625 2.18835 4.625 3.30012V4.67071H5.97206V3.30012H5.96618Z" fill="white"/>
</svg>
