<svg width="18" height="18" viewBox="0 0 18 18" fill="none" xmlns="http://www.w3.org/2000/svg">
<path d="M16.3125 8.99977V14.6248C16.3125 15.3707 16.0162 16.0861 15.4887 16.6135C14.9613 17.141 14.2459 17.4373 13.5 17.4373H9.5625C9.41332 17.4373 9.27024 17.378 9.16475 17.2725C9.05926 17.167 9 17.024 9 16.8748C9 16.7256 9.05926 16.5825 9.16475 16.477C9.27024 16.3715 9.41332 16.3123 9.5625 16.3123H13.5C13.9476 16.3123 14.3768 16.1345 14.6932 15.818C15.0097 15.5015 15.1875 15.0723 15.1875 14.6248H13.5C13.0524 14.6248 12.6232 14.447 12.3068 14.1305C11.9903 13.814 11.8125 13.3848 11.8125 12.9373V10.1248C11.8125 9.67722 11.9903 9.24799 12.3068 8.93152C12.6232 8.61506 13.0524 8.43727 13.5 8.43727H15.1629C15.0564 7.26793 14.6195 6.15301 13.903 5.22275C13.1866 4.29249 12.2202 3.58529 11.1168 3.18375C10.0135 2.78221 8.8186 2.70291 7.67183 2.95512C6.52506 3.20733 5.47372 3.78062 4.64062 4.60805C3.60468 5.63033 2.96573 6.98748 2.83781 8.43727H4.5C4.94755 8.43727 5.37678 8.61506 5.69324 8.93152C6.00971 9.24799 6.1875 9.67722 6.1875 10.1248V12.9373C6.1875 13.3848 6.00971 13.814 5.69324 14.1305C5.37678 14.447 4.94755 14.6248 4.5 14.6248H3.375C2.92745 14.6248 2.49822 14.447 2.18176 14.1305C1.86529 13.814 1.6875 13.3848 1.6875 12.9373V8.99977C1.68908 7.55126 2.12036 6.13578 2.92676 4.93249C3.73316 3.7292 4.87842 2.79221 6.21759 2.2401C7.55675 1.68799 9.02961 1.5456 10.4497 1.83094C11.8699 2.11628 13.1734 2.81653 14.1954 3.84305C14.8701 4.52108 15.4045 5.32558 15.7678 6.21046C16.131 7.09535 16.3162 8.04322 16.3125 8.99977Z" fill="white"/>
</svg>
