<svg width="20" height="20" viewBox="0 0 20 20" fill="none" xmlns="http://www.w3.org/2000/svg">
<path d="M18.1225 9.99135C18.123 10.2141 18.0641 10.4329 17.9517 10.6252C17.8394 10.8175 17.6777 10.9763 17.4834 11.0851L4.36542 18.5859C4.17695 18.6928 3.96412 18.7493 3.74746 18.7499C3.54765 18.7495 3.35085 18.7012 3.17356 18.6091C2.99626 18.517 2.84364 18.3837 2.72849 18.2204C2.61333 18.0571 2.53899 17.8686 2.51171 17.6706C2.48442 17.4727 2.50499 17.2711 2.57167 17.0828L4.70839 10.8367C4.72945 10.7749 4.76933 10.7212 4.82243 10.6832C4.87554 10.6453 4.9392 10.6249 5.00449 10.6249H10.6225C10.7081 10.6251 10.7929 10.6077 10.8716 10.5737C10.9503 10.5398 11.0211 10.49 11.0797 10.4275C11.1383 10.365 11.1835 10.2911 11.2123 10.2105C11.2412 10.1298 11.2531 10.044 11.2475 9.95854C11.2333 9.79783 11.1589 9.6484 11.0393 9.54018C10.9196 9.43196 10.7635 9.37295 10.6021 9.37495H5.00996C4.94477 9.37506 4.88117 9.35479 4.82808 9.31697C4.77498 9.27914 4.73505 9.22566 4.71386 9.16401L2.57011 2.91401C2.48663 2.67452 2.47797 2.4153 2.54529 2.17077C2.61262 1.92624 2.75273 1.70798 2.94702 1.54496C3.14132 1.38195 3.38061 1.28189 3.63311 1.25808C3.88562 1.23428 4.13939 1.28784 4.36074 1.41167L17.4857 8.90307C17.6788 9.01177 17.8395 9.16983 17.9514 9.36105C18.0632 9.55228 18.1223 9.7698 18.1225 9.99135Z" fill="#EFF3E6"/>
</svg>
