<svg width="40" height="20" viewBox="0 0 40 20" fill="none" xmlns="http://www.w3.org/2000/svg">
<path d="M38.0764 11.2776L38.9827 2.43888C39.129 1.02425 38.3262 -0.123057 37.2878 0.0106095L2.72607 4.494C1.88397 4.60539 1.16319 5.52991 1.03473 6.67722L0.0213564 15.527C-0.142782 16.9584 0.660067 18.128 1.71269 17.9887L36.3815 13.4886C37.2343 13.3772 37.9587 12.4304 38.0764 11.272V11.2776Z" fill="#D80B18"/>
<path d="M39.1094 1.46877L37.2455 19.5272L29.9423 10.4206L39.1094 1.46877Z" fill="#D80B18"/>
<path d="M6.49767 12.4121C6.76288 13.7297 7.98453 14.4087 9.6127 14.1708C11.3528 13.9166 12.3211 12.897 12.1205 11.5232C11.9637 10.4496 11.2494 9.93557 9.6913 9.7994L8.85331 9.71914C7.87275 9.62333 7.44147 9.37453 7.36566 8.85555C7.27053 8.20428 7.8106 7.66809 8.69592 7.53877C9.58124 7.40945 10.2514 7.76367 10.4245 8.48668L11.5337 8.32466C11.3131 7.06294 10.1226 6.34822 8.57072 6.5749C7.0036 6.80381 6.02659 7.83514 6.21165 9.10206C6.36103 10.1248 7.07902 10.6643 8.47491 10.7929L9.45982 10.8829C10.4455 10.978 10.8972 11.2602 10.9805 11.83C11.0763 12.4864 10.4797 13.062 9.55364 13.1973C8.58692 13.3385 7.80982 12.9635 7.62213 12.2478L6.49767 12.4121ZM18.1733 12.7957L19.3792 12.6195L15.6558 5.66469L14.4245 5.84455L12.8461 13.5738L14.0316 13.4006L14.4134 11.3182L17.2118 10.9094L18.1733 12.7957ZM15.1931 6.97946L15.2236 6.975L16.788 10.0359L14.5696 10.36L15.1931 6.97946ZM24.6029 10.8483L21.1837 11.3478L20.2554 4.99282L19.1157 5.1593L20.1882 12.5013L24.747 11.8354L24.6029 10.8483ZM30.2404 10.0249L26.7195 10.5392L26.3865 8.25972L29.7192 7.77292L29.5809 6.82654L26.2483 7.31335L25.9346 5.1662L29.4556 4.65189L29.3121 3.6699L24.6515 4.35069L25.7239 11.6927L30.3846 11.0119L30.2404 10.0249Z" fill="white"/>
</svg>
