<svg width="30" height="28" viewBox="0 0 30 28" fill="none" xmlns="http://www.w3.org/2000/svg">
<path d="M0 3.55933C0 2.45476 0.895431 1.55933 2 1.55933H28C29.1046 1.55933 30 2.45476 30 3.55933V17.825C30 18.9296 29.1046 19.825 28 19.825H2C0.89543 19.825 0 18.9296 0 17.825V3.55933Z" fill="#D80B18"/>
<path d="M30.0003 9.8457V28L21.8008 19.6914L30.0003 9.8457Z" fill="#D80B18"/>
<path d="M3.75258 13.9447L3.6875 7.81896H5.5747C5.5747 7.81896 7.35344 11.4276 7.50529 11.8062H7.52698C7.44021 11.0489 7.35344 7.77441 7.35344 7.77441H8.80681L8.87188 13.8778H7.17991L5.07579 9.66781C5.11917 10.4474 5.18425 13.9001 5.18425 13.9001H3.73088L3.75258 13.9447Z" fill="white"/>
<path d="M13.7102 11.3607H11.5627C11.5627 11.3829 11.5627 12.519 11.5627 12.519H13.9705C13.9705 12.4967 13.9705 13.8332 13.9705 13.8332L9.97914 13.8778L9.91406 7.75207L13.7969 7.70752V9.04404L11.541 9.06631V10.0464L13.6885 10.0241V11.3607H13.7102Z" fill="white"/>
<path d="M15.834 13.8107L14.4023 7.70727H16.116L16.8318 12.0955C16.8752 11.7836 17.526 7.66271 17.526 7.66271H19.2397C19.2397 7.66271 19.8687 11.65 19.9338 12.0064L20.5629 7.61816H22.1898L20.7798 13.7439H19.0444L18.6106 11.3604C18.5021 10.8035 18.3286 9.53384 18.3286 9.53384C18.3286 9.53384 18.1117 11.1377 18.0683 11.3827L17.6344 13.7884H15.8557L15.834 13.8107Z" fill="white"/>
<path d="M25.3368 13.7885C24.7295 13.7885 24.4258 13.4767 24.4258 12.853C24.4258 12.2293 24.7078 11.8951 25.3152 11.8951C25.9008 11.8951 26.2262 12.207 26.2262 12.8307C26.2262 13.4544 25.9442 13.7663 25.3368 13.7663V13.7885ZM24.7295 11.5833L24.4475 7.57373H26.0961L25.9008 11.561H24.7078L24.7295 11.5833Z" fill="white"/>
</svg>
