<svg width="17" height="16" viewBox="0 0 17 16" fill="none" xmlns="http://www.w3.org/2000/svg">
<path opacity="0.2" d="M13.9531 6V10H3.95312V6H13.9531Z" fill="#A2F0AA"/>
<path d="M4.45312 6V10C4.45312 10.1326 4.40045 10.2598 4.30668 10.3536C4.21291 10.4473 4.08573 10.5 3.95312 10.5C3.82052 10.5 3.69334 10.4473 3.59957 10.3536C3.5058 10.2598 3.45312 10.1326 3.45312 10V6C3.45312 5.86739 3.5058 5.74021 3.59957 5.64645C3.69334 5.55268 3.82052 5.5 3.95312 5.5C4.08573 5.5 4.21291 5.55268 4.30668 5.64645C4.40045 5.74021 4.45312 5.86739 4.45312 6ZM6.45312 1.5C6.32052 1.5 6.19334 1.55268 6.09957 1.64645C6.0058 1.74021 5.95312 1.86739 5.95312 2V14C5.95312 14.1326 6.0058 14.2598 6.09957 14.3536C6.19334 14.4473 6.32052 14.5 6.45312 14.5C6.58573 14.5 6.71291 14.4473 6.80668 14.3536C6.90045 14.2598 6.95312 14.1326 6.95312 14V2C6.95312 1.86739 6.90045 1.74021 6.80668 1.64645C6.71291 1.55268 6.58573 1.5 6.45312 1.5ZM8.95312 3.5C8.82052 3.5 8.69334 3.55268 8.59957 3.64645C8.5058 3.74021 8.45312 3.86739 8.45312 4V12C8.45312 12.1326 8.5058 12.2598 8.59957 12.3536C8.69334 12.4473 8.82052 12.5 8.95312 12.5C9.08573 12.5 9.21291 12.4473 9.30668 12.3536C9.40045 12.2598 9.45312 12.1326 9.45312 12V4C9.45312 3.86739 9.40045 3.74021 9.30668 3.64645C9.21291 3.55268 9.08573 3.5 8.95312 3.5ZM11.4531 5.5C11.3205 5.5 11.1933 5.55268 11.0996 5.64645C11.0058 5.74021 10.9531 5.86739 10.9531 6V10C10.9531 10.1326 11.0058 10.2598 11.0996 10.3536C11.1933 10.4473 11.3205 10.5 11.4531 10.5C11.5857 10.5 11.7129 10.4473 11.8067 10.3536C11.9004 10.2598 11.9531 10.1326 11.9531 10V6C11.9531 5.86739 11.9004 5.74021 11.8067 5.64645C11.7129 5.55268 11.5857 5.5 11.4531 5.5ZM13.9531 4.5C13.8205 4.5 13.6933 4.55268 13.5996 4.64645C13.5058 4.74021 13.4531 4.86739 13.4531 5V11C13.4531 11.1326 13.5058 11.2598 13.5996 11.3536C13.6933 11.4473 13.8205 11.5 13.9531 11.5C14.0857 11.5 14.2129 11.4473 14.3067 11.3536C14.4004 11.2598 14.4531 11.1326 14.4531 11V5C14.4531 4.86739 14.4004 4.74021 14.3067 4.64645C14.2129 4.55268 14.0857 4.5 13.9531 4.5Z" fill="#A2F0AA"/>
</svg>
